<svg width="108" height="60" viewBox="0 0 108 60" fill="none" xmlns="http://www.w3.org/2000/svg"><g clip-path="url(#clip0_9075_1086)"><path d="M17.1116 42.963C15.7427 43.7531 14.227 43.9013 12.8581 43.9013H8.11567C7.92011 43.9013 7.77344 43.7531 7.77344 43.5556V31.2099C7.77344 31.0124 7.92011 30.8643 8.11567 30.8643H13.1025C15.0093 30.8643 16.8183 31.1606 18.4317 32.8396C19.4095 33.8272 20.0451 35.3087 20.0451 37.3828C19.9962 39.605 19.2139 41.7285 17.1116 42.963ZM11.098 41.0371H12.6136C13.4448 41.0371 14.227 40.9383 14.8626 40.5927C16.1827 40.0001 16.6227 38.7161 16.6227 37.3334C16.6227 36.0988 16.2805 35.2593 15.7427 34.6667C15.0582 33.926 13.9826 33.6297 12.6625 33.6297H11.1469V41.0371H11.098Z" fill="white"/><path d="M24.2496 43.5063C24.1519 43.7532 24.0052 43.9014 23.6629 43.9014H21.0228C20.7784 43.9014 20.7295 43.8026 20.7295 43.6544C20.7295 43.5557 20.7295 43.5063 20.7784 43.4569L24.9341 31.1606C25.0319 30.9137 25.1786 30.8149 25.4719 30.8149H28.3076C28.6009 30.8149 28.7476 30.9137 28.8454 31.1606L32.9522 43.4569C32.9522 43.5557 33.0011 43.6051 33.0011 43.6544C33.0011 43.8026 32.9033 43.9014 32.7078 43.9014H30.0188C29.7254 43.9014 29.5299 43.8026 29.4321 43.5063L28.8454 41.531H24.8363L24.2496 43.5063ZM26.8897 34.8643L25.6675 38.8149H28.0142L26.8897 34.8643Z" fill="white"/><path d="M43.024 30.8643C43.2195 30.8643 43.3662 31.0125 43.3662 31.21V33.531C43.3662 33.7285 43.2195 33.8767 43.024 33.8767H39.3571V43.6051C39.3571 43.8026 39.2105 43.9507 39.0149 43.9507H36.3259C36.1303 43.9507 35.9837 43.8026 35.9837 43.6051V33.8273H32.3168C32.1213 33.8273 31.9746 33.6791 31.9746 33.4816V31.1606C31.9746 30.9631 32.1213 30.8149 32.3168 30.8149H43.024V30.8643Z" fill="white"/><path d="M45.9088 43.5063C45.811 43.7532 45.6644 43.9014 45.3221 43.9014H42.682C42.4376 43.9014 42.3887 43.8026 42.3887 43.6544C42.3887 43.5557 42.3887 43.5063 42.4376 43.4569L46.5933 31.1606C46.6911 30.9137 46.8377 30.8149 47.1311 30.8149H49.9668C50.2601 30.8149 50.4068 30.9137 50.5046 31.1606L54.6114 43.4569C54.6114 43.5557 54.6603 43.6051 54.6603 43.6544C54.6603 43.8026 54.5625 43.9014 54.3669 43.9014H51.6779C51.3846 43.9014 51.189 43.8026 51.0913 43.5063L50.5046 41.531H46.4955L45.9088 43.5063ZM48.5 34.8643L47.2778 38.8149H49.6245L48.5 34.8643Z" fill="white"/><path d="M64.6831 39.0124L67.1765 43.3087C67.3232 43.5556 67.3721 43.9013 66.981 43.9013H64.0475C63.7542 43.9013 63.5586 43.8519 63.4119 43.5556L61.3585 39.6544H59.3051V43.5556C59.3051 43.7531 59.1584 43.9013 58.9629 43.9013H56.2739C56.0783 43.9013 55.9316 43.7531 55.9316 43.5556V31.2099C55.9316 31.0124 56.0783 30.8643 56.2739 30.8643H62.043C63.3142 30.8643 64.5364 31.1112 65.3676 31.8025C66.3454 32.5927 66.8832 33.8766 66.8832 35.2099C66.8832 36.3457 66.4921 37.5309 65.4654 38.4198C65.172 38.6667 64.9276 38.8643 64.6831 39.0124ZM59.2562 33.7285V36.8396H61.5052C62.0919 36.8396 62.5319 36.7408 62.8742 36.5433C63.2164 36.2964 63.4608 35.8519 63.4608 35.2593C63.4608 34.6667 63.2653 34.2717 62.923 34.0248C62.6297 33.7778 62.1897 33.6791 61.7985 33.6791H59.2562V33.7285Z" fill="white"/><path d="M78.5681 30.8643C78.7637 30.8643 78.9103 31.0124 78.9103 31.2099V33.5309C78.9103 33.7285 78.7637 33.8766 78.5681 33.8766H72.2123V35.8519H77.5414C77.737 35.8519 77.8836 36.0001 77.8836 36.1976V38.5186C77.8836 38.7161 77.737 38.8643 77.5414 38.8643H72.2123V40.9383H78.5681C78.7637 40.9383 78.9103 41.0865 78.9103 41.284V43.605C78.9103 43.8025 78.7637 43.9507 78.5681 43.9507H69.2299C69.0344 43.9507 68.8877 43.8025 68.8877 43.605V31.2593C68.8877 31.0618 69.0344 30.9136 69.2299 30.9136H78.5681V30.8643Z" fill="white"/><path d="M104.333 31.2099C104.333 31.0124 104.48 30.8643 104.675 30.8643H107.218C107.413 30.8643 107.56 31.0124 107.56 31.2099V43.5556C107.56 43.7531 107.413 43.9013 107.218 43.9013H104.871C104.627 43.9013 104.431 43.8519 104.284 43.5556L99.0041 36.4939V43.5556C99.0041 43.7531 98.8575 43.9013 98.6619 43.9013H96.1196C95.924 43.9013 95.7773 43.7531 95.7773 43.5556V31.2099C95.7773 31.0124 95.924 30.8643 96.1196 30.8643H98.4663C98.7108 30.8643 98.8575 30.963 99.053 31.2099L104.284 38.2717V31.2099H104.333Z" fill="white"/><path d="M104.824 53.6295C104.237 53.6295 103.65 53.827 103.161 54.1233L91.7699 41.827C92.7477 40.6912 93.3344 39.1603 93.3344 37.5307C93.3344 33.8764 90.3521 30.9134 86.7341 30.9134C85.2674 30.9134 83.9474 31.4072 82.8718 32.1974L66.6889 14.6665C66.3955 15.0616 66.0533 15.4072 65.6133 15.6542L81.7962 33.1356C80.7695 34.3208 80.1339 35.8517 80.1339 37.5307C80.1339 41.185 83.1162 44.148 86.7341 44.148C88.2498 44.148 89.6187 43.6542 90.7432 42.7653L102.135 55.1109C101.841 55.6048 101.646 56.148 101.646 56.79C101.646 58.5184 103.064 59.9505 104.824 59.9505C106.584 59.9505 108.002 58.5184 108.002 56.79C108.002 55.0616 106.584 53.6295 104.824 53.6295ZM90.3032 40.1974C90.0098 40.5924 89.6676 40.9381 89.2765 41.185C88.5431 41.6788 87.712 41.9751 86.783 41.9751C84.3385 41.9751 82.3829 39.9998 82.3829 37.5307C82.3829 36.4937 82.774 35.506 83.3607 34.7653C83.654 34.3702 84.0452 34.0739 84.4363 33.7776C85.1208 33.3332 85.9519 33.0863 86.783 33.0863C89.2276 33.0863 91.1832 35.0616 91.1832 37.5307C91.1832 38.5184 90.841 39.4566 90.3032 40.1974ZM104.824 58.864C103.699 58.864 102.819 57.9751 102.819 56.8393C102.819 56.543 102.868 56.2961 102.966 56.0492C103.161 55.6048 103.504 55.2097 103.993 55.0122C104.237 54.9134 104.53 54.8147 104.824 54.8147C105.948 54.8147 106.828 55.7035 106.828 56.8393C106.828 57.9258 105.948 58.864 104.824 58.864Z" fill="white"/><path d="M104.822 19.9012C103.893 19.9012 103.062 20.3456 102.475 20.9876L67.665 11.753C67.5672 9.33327 65.6116 7.35796 63.167 7.35796C61.6025 7.35796 60.2336 8.14808 59.4024 9.38265L52.5577 7.20981C52.5577 7.01228 52.6066 6.76537 52.6066 6.56783C52.6066 2.9629 49.722 0.0493164 46.153 0.0493164C42.9262 0.0493164 40.2861 2.41969 39.7483 5.5308L26.0589 6.07401C25.4722 4.44438 23.9077 3.30858 22.0987 3.30858C19.7519 3.30858 17.8452 5.2345 17.8452 7.55549C17.8452 8.0987 17.943 8.59253 18.1385 9.03697L4.3024 19.9506C3.91127 19.753 3.47125 19.6543 2.98235 19.6543C1.32005 19.6543 0 20.9876 0 22.6666C0 24.2962 1.36895 25.6789 2.98235 25.6789C4.64464 25.6789 5.96469 24.3456 5.96469 22.6666C5.96469 22.4197 5.9158 22.2222 5.86691 21.9752L19.6053 11.0123C20.2897 11.4567 21.072 11.753 21.952 11.753C23.9077 11.753 25.5211 10.4197 26.01 8.64191L39.6994 8.0987C40.3839 10.9135 42.9262 13.037 45.9575 13.037C48.402 13.037 50.5043 11.6543 51.6288 9.67895L58.4735 11.8518V11.9012C58.4735 14.4197 60.5269 16.4444 63.0204 16.4444C63.9493 16.4444 64.8293 16.1481 65.5138 15.7036C65.9049 15.4567 66.2472 15.111 66.5894 14.716C66.6872 14.5678 66.785 14.4197 66.8828 14.2715L101.595 23.5061C101.791 25.0864 103.111 26.2715 104.724 26.2715C106.484 26.2715 107.902 24.8394 107.902 23.111C108 21.2839 106.582 19.9012 104.822 19.9012ZM4.05795 22.716C4.00905 23.3086 3.56904 23.753 2.98235 23.753C2.39565 23.753 1.90675 23.2592 1.90675 22.6666C1.90675 22.074 2.39565 21.5802 2.98235 21.5802C3.03124 21.5802 3.12902 21.5802 3.17791 21.5802C3.66682 21.6789 4.05795 22.1234 4.05795 22.6666C4.10684 22.6666 4.05795 22.716 4.05795 22.716ZM24.7388 8.0987C24.4455 9.33327 23.3699 10.2715 22.0009 10.2715C21.3653 10.2715 20.8275 10.074 20.3386 9.72833C19.9475 9.43203 19.6541 9.03697 19.4586 8.59253C19.3119 8.24685 19.2141 7.85179 19.2141 7.45672C19.2141 5.92586 20.4853 4.64191 22.0009 4.64191C23.2721 4.64191 24.2988 5.48141 24.641 6.61722C24.7388 6.86413 24.7877 7.16043 24.7877 7.45672C24.8366 7.70364 24.7877 7.90117 24.7388 8.0987ZM50.6021 7.16043C50.5532 7.65425 50.4065 8.0987 50.1621 8.54314C49.4287 10.0246 47.8642 11.0617 46.1041 11.0617C43.904 11.0617 42.0462 9.48141 41.655 7.40734C41.6062 7.11104 41.5573 6.81475 41.5573 6.51845C41.5573 6.32092 41.5573 6.17277 41.6062 5.97524C41.8506 3.70364 43.8063 1.92586 46.1041 1.92586C48.5976 1.92586 50.651 3.99993 50.651 6.51845C50.651 6.71598 50.6021 6.9629 50.6021 7.16043ZM104.822 25.0864C103.746 25.0864 102.866 24.2468 102.818 23.1604C102.818 23.111 102.818 23.111 102.818 23.0617C102.818 22.5678 103.013 22.1234 103.306 21.7777C103.698 21.3333 104.235 21.037 104.871 21.037C105.995 21.037 106.876 21.9259 106.876 23.0617C106.827 24.1481 105.947 25.0864 104.822 25.0864Z" fill="#37B4D2"/><path d="M7.72461 49.0366H8.06685V52.1971L10.0714 49.0366H10.5114V52.5428H10.1692V49.3823L8.16463 52.5428H7.72461V49.0366Z" fill="white"/><path d="M16.0854 51.012C15.0587 51.012 14.9609 50.4688 14.9609 49.975V48.9873H15.3032V49.9256C15.3032 50.2219 15.3521 50.6663 16.0854 50.6663C16.5254 50.6663 17.0144 50.5676 17.2099 50.5182V48.9873H17.5522V52.4935H17.2099V50.8638C16.9655 50.9132 16.3788 51.012 16.0854 51.012Z" fill="white"/><path d="M22.1965 52.5922H21.8054L21.3654 51.5058H19.752L19.312 52.5922H18.9697L20.3876 49.0366H20.7787L22.1965 52.5922ZM20.632 49.3329L19.8987 51.1601H21.3165L20.632 49.3329Z" fill="white"/><path d="M25.2277 52.6417C24.2498 52.6417 23.6143 51.901 23.6143 50.8145C23.6143 49.8269 24.2009 48.938 25.2765 48.938C25.961 48.938 26.6455 49.3824 26.6944 50.0738H26.3521C26.2544 49.5306 25.8143 49.2343 25.2277 49.2343C24.4454 49.2343 23.9076 49.8763 23.9076 50.8145C23.9076 51.7528 24.3965 52.3454 25.1788 52.3454C25.8632 52.3454 26.2544 51.8516 26.3521 51.2096H26.6944C26.6455 52.0985 26.0588 52.6417 25.2277 52.6417Z" fill="white"/><path d="M30.8991 49.3329H29.6768V52.5922H29.3346V49.3329H28.1123V49.0366H30.8991V49.3329Z" fill="white"/><path d="M32.463 49.0366H32.8052V52.1971L34.8097 49.0366H35.2008V52.5428H34.8586V49.3823L32.8541 52.5428H32.4141V49.0366H32.463Z" fill="white"/><path d="M41.215 52.6417C40.2371 52.6417 39.6016 51.901 39.6016 50.8145C39.6016 49.8269 40.1883 48.938 41.2639 48.938C41.9483 48.938 42.6328 49.3824 42.6817 50.0738H42.3395C42.2417 49.5306 41.8017 49.2343 41.215 49.2343C40.4327 49.2343 39.8949 49.8763 39.8949 50.8145C39.8949 51.7528 40.3838 52.3454 41.1661 52.3454C41.8505 52.3454 42.2417 51.8516 42.3395 51.2096H42.6817C42.6328 52.0985 42.0461 52.6417 41.215 52.6417Z" fill="white"/><path d="M46.8864 49.3329H45.6641V52.5922H45.3219V49.3329H44.0996V49.0366H46.8864V49.3329Z" fill="white"/><path d="M51.2375 52.5922H50.8464L50.4064 51.5058H48.793L48.353 52.5922H48.0107L49.4286 49.0366H49.8197L51.2375 52.5922ZM49.673 49.3329L48.9397 51.1601H50.3575L49.673 49.3329Z" fill="white"/><path d="M55.5885 52.5921H55.2463V50.8637H53.144V52.5921H52.8018V49.0859H53.144V50.6168H55.2463V49.0859H55.5885V52.5921Z" fill="white"/><path d="M57.4956 49.0366L58.6689 51.407L59.7934 49.0366H60.1357L58.7178 51.9502C58.4245 52.5428 58.18 52.6416 57.8378 52.6416C57.6911 52.6416 57.5933 52.5922 57.4956 52.5428V52.2465C57.5444 52.2959 57.6911 52.3453 57.8867 52.3453C58.1311 52.3453 58.2778 52.0983 58.4245 51.8514L58.4734 51.7527L57.1533 49.0366H57.4956Z" fill="white"/><path d="M64.0954 49.3329H62.8731V52.5922H62.5309V49.3329H61.3086V49.0366H64.0954V49.3329Z" fill="white"/><path d="M71.0387 53.5304V52.5921H68.252V49.0859H68.5942V52.3452H70.6965V49.0859H71.0387V52.3452H71.4299V53.5798H71.0387V53.5304Z" fill="white"/><path d="M75.4875 49.3329H73.3852V50.6168H75.3408V50.9131H73.3852V52.2958H75.4875V52.5921H73.043V49.0859H75.4875V49.3329Z" fill="white"/><path d="M79.4964 52.5922V49.3329H78.0786L78.0297 51.407C78.0297 52.0983 77.8341 52.6416 77.2963 52.6416C77.1497 52.6416 77.0519 52.5922 76.9541 52.5922V52.2959C77.003 52.3453 77.1986 52.3453 77.2963 52.3453C77.5408 52.3453 77.6875 52.0983 77.7364 51.2095L77.7853 49.0366H79.8387V52.5428H79.4964V52.5922Z" fill="white"/><path d="M83.3096 52.5922H81.7451V49.086H82.0874V50.5675H83.3096C83.9452 50.5675 84.3363 50.9625 84.3363 51.6045C84.3363 52.1477 83.9452 52.5922 83.3096 52.5922ZM83.2118 50.8144H82.0385V52.2959H83.2118C83.7008 52.2959 83.9941 51.9996 83.9941 51.5551C83.9941 51.1107 83.7008 50.8144 83.2118 50.8144ZM85.1675 49.0366V52.5428H84.8252V49.0366H85.1675Z" fill="white"/><path d="M90.5454 52.5925H90.2032V50.4691C90.2032 50.074 90.2032 49.7283 90.2521 49.3827C90.2032 49.5802 90.1054 49.8271 90.0076 50.0246L88.9809 52.6419H88.6876L87.6608 50.074C87.5631 49.8765 87.5142 49.6296 87.4164 49.432C87.4653 49.7777 87.4653 50.1728 87.4653 50.5185V52.6419H87.123V49.1357H87.5631L88.5898 51.6543C88.6876 51.8518 88.7364 52.0987 88.8342 52.2962C88.932 52.0987 88.9809 51.8518 89.0787 51.6543L90.1054 49.1357H90.5454V52.5925Z" fill="white"/></g><defs><clipPath id="clip0_9075_1086"><rect width="108" height="60" fill="white"/></clipPath></defs></svg>